<svg width="162" height="31" viewBox="0 0 162 31" fill="none" xmlns="http://www.w3.org/2000/svg">
<path d="M33.7552 8.91858C32.3922 8.91858 31.2683 9.9946 31.2683 11.3513V16.4975V21.6437H33.7552V16.4975V11.3513H36.7203H39.6854V8.91858H36.7203H33.7552Z" fill="#E1E1E6"/>
<path d="M54.512 15.2573V11.3275C54.512 9.99419 53.412 8.89478 52.0251 8.89478H48.0079H43.9906C42.6277 8.89478 41.5038 9.97079 41.5038 11.3275V15.2573V19.1871C41.5038 20.5205 42.6037 21.6199 43.9906 21.6199H48.0079H52.0251C53.3881 21.6199 54.512 20.5439 54.512 19.1871V15.2573ZM52.0251 15.2573V19.1871H48.0079H43.9906V15.2573V11.3275H48.0079H52.0251V15.2573Z" fill="#E1E1E6"/>
<path d="M59.4865 8.91858C58.1235 8.91858 56.9996 9.9946 56.9996 11.3513V15.2811V19.2109C56.9996 20.5443 58.0996 21.6437 59.4865 21.6437L68.2383 21.5267V19.2109H59.4865V15.2811V11.3513H68.2383V9.03554L59.4865 8.91858Z" fill="#E1E1E6"/>
<path d="M82.4921 8.91858H79.1205L74.1946 14.0414H73.2142V8.91858H70.7273V15.2577V21.6203H73.2142V16.4741H74.4576H74.6489L79.7661 21.6203H83.1855L76.6097 14.977L82.4921 8.91858Z" fill="#E1E1E6"/>
<path d="M86.1944 19.1871V16.4737L96.7157 16.3567V14.041V11.3275C96.7157 9.99419 95.6158 8.89478 94.2289 8.89478H90.2116H86.1944C84.8314 8.89478 83.7075 9.97079 83.7075 11.3275V15.2573V19.1871C83.7075 20.5205 84.8075 21.6199 86.1944 21.6199L96.7157 21.5029V19.1871H86.1944ZM86.1944 11.3275H90.2116H94.2289V14.041H91.4551H86.1944V11.3275Z" fill="#E1E1E6"/>
<path d="M102.958 5.20081H102.002L100.471 7.04876V8.89671H98.5824V11.3294L100.471 11.3061V19.1891C100.471 20.5224 101.571 21.6218 102.958 21.6218L106.976 21.5049V19.1891H102.958V11.2827L107.334 11.2125V8.89671H102.958V5.20081Z" fill="#E1E1E6"/>
<path d="M120.436 16.4737C120.436 15.1404 119.336 14.041 117.949 14.041H114.817H111.684V11.3275H120.436V9.01173L111.684 8.89478C110.321 8.89478 109.198 9.97079 109.198 11.3275V14.041C109.198 15.3743 110.297 16.4737 111.684 16.4737H114.817H117.949V19.1871H109.198V21.5029L117.949 21.6199C119.312 21.6199 120.436 20.5439 120.436 19.1871V16.4737Z" fill="#E1E1E6"/>
<path d="M133.419 8.91858H129.402H125.384C124.021 8.91858 122.898 9.9946 122.898 11.3513V15.2811V19.2109C122.898 20.5443 123.998 21.6437 125.384 21.6437L135.906 21.5267V19.2109H125.384V16.4975L135.906 16.3805V14.0648V11.3513C135.906 9.9946 134.806 8.91858 133.419 8.91858ZM133.419 14.0414H125.384V11.3279H129.402H133.419V14.0414Z" fill="#E1E1E6"/>
<path d="M148.915 8.91858L138.393 9.03554V11.3513H148.915V14.0648L138.393 14.1817V16.4975V19.2109C138.393 20.5443 139.493 21.6437 140.88 21.6437H144.897H148.915C150.278 21.6437 151.402 20.5677 151.402 19.2109V15.2811V11.3513C151.378 9.9946 150.278 8.91858 148.915 8.91858ZM148.915 19.1875H144.897H140.88V16.4741H148.915V19.1875Z" fill="#E1E1E6"/>
<path d="M157.624 11.2824L162 11.2122V8.89641H157.624V5.17712H156.668L155.137 7.02507V8.87302H153.248V11.3058L155.137 11.2824V19.1654C155.137 20.4987 156.237 21.5981 157.624 21.5981L161.641 21.4812V19.1654H157.624V11.2824Z" fill="#E1E1E6"/>
<path d="M24.6924 0.591016L20.6513 0.00622214C20.5317 -0.0171696 20.4121 0.029611 20.3643 0.0763945L18.6426 2.27522C18.5231 2.41557 18.4992 2.6027 18.547 2.76645C18.5948 2.93019 18.4513 3.07054 18.284 3.04715L16.8731 2.74305C16.6579 2.69627 16.4188 2.76645 16.2753 2.95358L10.6799 9.97111C10.5842 10.1115 10.3929 10.1582 10.2256 10.0881L8.09738 9.1524C7.90608 9.05883 7.69087 9.08222 7.52349 9.19918L6.44744 9.92432C6.28006 10.0413 6.04093 10.0647 5.84964 9.97111L5.32357 9.7138C4.9888 9.55006 4.58229 9.73719 4.48664 10.0881L4.10405 11.7489C4.0084 12.1465 4.17579 12.5442 4.53447 12.7547L5.34748 13.246L7.95391 14.8132L9.22125 15.5851C9.57993 15.7957 10.0343 15.7489 10.3451 15.4916L12.4733 13.667C12.6407 13.5267 12.9037 13.4799 13.095 13.5968L13.7406 13.9243C13.9559 14.0413 14.2189 13.9945 14.3863 13.8307L15.4623 12.8483C15.6297 12.6846 15.8927 12.6612 16.084 12.7547L17.6862 13.4799C17.9253 13.5968 18.2122 13.5267 18.3796 13.3161L19.1209 12.3805L24.7402 5.33954C25.0033 5.01205 24.8359 4.52083 24.4055 4.42726L23.162 4.14656C22.899 4.09977 22.7794 3.77229 22.9707 3.58516L24.9076 1.22259C25.0989 0.941888 24.9794 0.637799 24.6924 0.591016Z" fill="#E1E1E6"/>
<path d="M6.15839 14.7654C6.03883 14.6953 5.91927 14.8122 5.9671 14.9292L6.5649 16.473C6.61272 16.59 6.61272 16.707 6.58881 16.8239L6.06274 18.8356C6.03883 18.976 6.08666 19.1163 6.1823 19.1865L7.68877 20.3327C7.83224 20.4263 8.02354 20.4263 8.1431 20.3093L9.7213 18.9526C9.81695 18.8824 9.93651 18.8356 10.0322 18.8122L11.8256 18.6251C11.9451 18.6017 11.993 18.4379 11.8734 18.3678L6.15839 14.7654Z" fill="#E1E1E6"/>
<path d="M5.63239 19.9608C5.53674 19.8906 5.39327 19.8672 5.27371 19.914L4.00637 20.5222C3.93463 20.5456 3.8868 20.6157 3.83898 20.6859L1.13691 27.2122C1.13691 27.2356 1.13691 27.2356 1.13691 27.259C1.16082 27.2824 1.18473 27.3058 1.23256 27.3058L1.85427 27.0719C1.87818 27.0719 1.90209 27.0719 1.92601 27.0719C1.94992 27.0952 1.97383 27.142 1.94992 27.1654L0.0130339 30.2765C-0.0347904 30.3467 0.0608604 30.4169 0.108685 30.3467L7.11495 23.4695C7.18668 23.3994 7.2106 23.3292 7.23451 23.2356L7.37798 21.4578C7.37798 21.3409 7.33015 21.2473 7.25842 21.1771L5.63239 19.9608Z" fill="#E1E1E6"/>
</svg>
